<svg width="309" height="18" viewBox="0 0 309 18" fill="none" xmlns="http://www.w3.org/2000/svg">
<path d="M18.4512 7.18099C18.4512 8.11555 18.2854 8.94082 17.9537 9.65681C17.6297 10.3728 17.1586 10.9757 16.5406 11.4656C15.9226 11.948 15.1689 12.3135 14.2796 12.5622C13.3978 12.811 12.3991 12.9353 11.2837 12.9353H5.00935V18H0.0463867V0.895325H11.1593C12.2823 0.895325 13.2923 1.01591 14.1891 1.25709C15.0935 1.49827 15.8585 1.84873 16.4841 2.30847C17.1172 2.76067 17.6033 3.31839 17.9424 3.98163C18.2816 4.64487 18.4512 5.39477 18.4512 6.23135V7.18099ZM13.4091 6.57051C13.4091 5.81683 13.1792 5.27042 12.7195 4.93126C12.2673 4.58457 11.555 4.41123 10.5828 4.41123H5.02065V9.43071H10.4132C11.3854 9.43071 12.1278 9.23852 12.6403 8.85415C13.1528 8.46977 13.4091 7.88191 13.4091 7.09055V6.57051Z" fill="white"/>
<path d="M35.124 18V0.895325H40.1096V18H35.124Z" fill="white"/>
<path d="M62.3784 0.895325L66.6631 6.75139L70.9025 0.895325H76.6229L69.9077 9.31766L77.2108 18H71.4904L66.6292 11.9518L61.7906 18H56.0589L63.3846 9.34027L56.6467 0.895325H62.3784Z" fill="white"/>
<path d="M93.1601 18V0.895325H98.1457V18H93.1601Z" fill="white"/>
<path d="M116.322 18V0.895325H132.579V4.41123H121.251V7.62189H131.381V11.1378H121.251V14.4841H132.647V18H116.322Z" fill="white"/>
<path d="M174.471 0.895325H184.872C186.553 0.895325 187.996 1.08751 189.202 1.47189C190.415 1.85626 191.41 2.3876 192.186 3.06591C192.963 3.74422 193.532 4.54689 193.893 5.47391C194.263 6.40093 194.447 7.40709 194.447 8.49238V10.4369C194.447 11.492 194.27 12.4793 193.916 13.3988C193.569 14.3183 193.012 15.1172 192.243 15.7955C191.482 16.4738 190.494 17.0127 189.281 17.4121C188.068 17.8041 186.598 18 184.872 18H174.471V0.895325ZM179.457 14.4841H184.488C185.271 14.4841 185.969 14.3861 186.579 14.1902C187.19 13.9942 187.702 13.7116 188.117 13.3423C188.539 12.9655 188.859 12.5057 189.077 11.9631C189.296 11.4204 189.405 10.7986 189.405 10.0977V8.66196C189.405 8.11178 189.315 7.58044 189.134 7.06794C188.953 6.55544 188.663 6.10323 188.264 5.71132C187.872 5.31187 187.363 4.99532 186.737 4.76169C186.119 4.52805 185.366 4.41123 184.476 4.41123H179.457V14.4841Z" fill="white"/>
<path d="M211.358 18V0.895325H216.343V18H211.358Z" fill="white"/>
<path d="M238.612 0.895325L242.897 6.75139L247.136 0.895325H252.857L246.141 9.31766L253.444 18H247.724L242.863 11.9518L238.024 18H232.293L239.618 9.34027L232.88 0.895325H238.612Z" fill="white"/>
<path d="M269.394 18V0.895325H274.379V18H269.394Z" fill="white"/>
<path d="M292.556 18V0.895325H308.813V4.41123H297.485V7.62189H307.614V11.1378H297.485V14.4841H308.88V18H292.556Z" fill="white"/>
<path d="M148.986 11.0117H150.394L149.158 7.31056H147.237L146.001 11.0117H147.408L147.53 10.5835H148.864L148.986 11.0117ZM147.806 9.59244L148.167 8.30161H148.228L148.589 9.59244H147.806Z" fill="white"/>
<path d="M151.262 11.0117H152.516V9.10303H152.565L154.217 11.0117H155.471V7.31056H154.217V9.2682H154.174L152.516 7.31056H151.262V11.0117Z" fill="white"/>
<path d="M159.1 7.31056H156.635V11.0117H159.051C159.951 11.0117 160.838 10.2103 160.838 9.1275C160.838 8.07526 159.969 7.31056 159.1 7.31056ZM158.782 10.0207H157.889V8.30161H158.758C159.217 8.30161 159.578 8.68091 159.578 9.12138C159.578 9.61691 159.192 10.0207 158.782 10.0207Z" fill="white"/>
</svg>
