<svg width="1282" height="71" viewBox="0 0 1282 71" fill="none" xmlns="http://www.w3.org/2000/svg">
<path d="M76.9688 26.1406C76.9688 30.0156 76.2812 33.4375 74.9062 36.4062C73.5625 39.375 71.6094 41.875 69.0469 43.9062C66.4844 45.9062 63.3594 47.4219 59.6719 48.4531C56.0156 49.4844 51.875 50 47.25 50H21.2344V71H0.65625V0.078125H46.7344C51.3906 0.078125 55.5781 0.578125 59.2969 1.57812C63.0469 2.57812 66.2188 4.03125 68.8125 5.9375C71.4375 7.8125 73.4531 10.125 74.8594 12.875C76.2656 15.625 76.9688 18.7344 76.9688 22.2031V26.1406ZM56.0625 23.6094C56.0625 20.4844 55.1094 18.2188 53.2031 16.8125C51.3281 15.375 48.375 14.6562 44.3438 14.6562H21.2812V35.4688H43.6406C47.6719 35.4688 50.75 34.6719 52.875 33.0781C55 31.4844 56.0625 29.0469 56.0625 25.7656V23.6094Z" fill="white"/>
<path d="M146.1 71V0.078125H166.772V71H146.1Z" fill="white"/>
<path d="M259.106 0.078125L276.872 24.3594L294.45 0.078125H318.169L290.325 35L320.606 71H296.888L276.731 45.9219L256.669 71H232.903L263.278 35.0938L235.341 0.078125H259.106Z" fill="white"/>
<path d="M386.737 71V0.078125H407.409V71H386.737Z" fill="white"/>
<path d="M482.775 71V0.078125H550.181V14.6562H503.213V27.9688H545.213V42.5469H503.213V56.4219H550.463V71H482.775Z" fill="white"/>
<path d="M723.881 0.078125H767.006C773.975 0.078125 779.959 0.875 784.959 2.46875C789.991 4.0625 794.116 6.26562 797.334 9.07812C800.553 11.8906 802.912 15.2188 804.412 19.0625C805.944 22.9062 806.709 27.0781 806.709 31.5781V39.6406C806.709 44.0156 805.975 48.1094 804.506 51.9219C803.069 55.7344 800.756 59.0469 797.569 61.8594C794.412 64.6719 790.319 66.9062 785.287 68.5625C780.256 70.1875 774.162 71 767.006 71H723.881V0.078125ZM744.553 56.4219H765.412C768.662 56.4219 771.553 56.0156 774.084 55.2031C776.616 54.3906 778.741 53.2188 780.459 51.6875C782.209 50.125 783.537 48.2188 784.444 45.9688C785.35 43.7188 785.803 41.1406 785.803 38.2344V32.2812C785.803 30 785.428 27.7969 784.678 25.6719C783.928 23.5469 782.725 21.6719 781.069 20.0469C779.444 18.3906 777.334 17.0781 774.741 16.1094C772.178 15.1406 769.053 14.6562 765.366 14.6562H744.553V56.4219Z" fill="white"/>
<path d="M876.825 71V0.078125H897.497V71H876.825Z" fill="white"/>
<path d="M989.831 0.078125L1007.6 24.3594L1025.18 0.078125H1048.89L1021.05 35L1051.33 71H1027.61L1007.46 45.9219L987.394 71H963.628L994.003 35.0938L966.066 0.078125H989.831Z" fill="white"/>
<path d="M1117.46 71V0.078125H1138.13V71H1117.46Z" fill="white"/>
<path d="M1213.5 71V0.078125H1280.91V14.6562H1233.94V27.9688H1275.94V42.5469H1233.94V56.4219H1281.19V71H1213.5Z" fill="white"/>
<path d="M603.387 42L611.52 24.2695H618.164L626.297 42H620.977L619.453 38.3438H610.23L608.707 42H603.387ZM611.672 34.8633H618.012L615.117 27.8906H614.578L611.672 34.8633Z" fill="white"/>
<path d="M643.43 42L633.246 30.3984H633.164L633.316 31.6875L633.398 42H628.477V24.2695H633.41L643.734 36.1641H643.816L643.688 34.9688L643.594 24.2695H648.516V42H643.43Z" fill="white"/>
<path d="M652.945 24.2695H663.727C665.469 24.2695 666.965 24.4688 668.215 24.8672C669.473 25.2656 670.504 25.8164 671.309 26.5195C672.113 27.2227 672.703 28.0547 673.078 29.0156C673.461 29.9766 673.652 31.0195 673.652 32.1445V34.1602C673.652 35.2539 673.469 36.2773 673.102 37.2305C672.742 38.1836 672.164 39.0117 671.367 39.7148C670.578 40.418 669.555 40.9766 668.297 41.3906C667.039 41.7969 665.516 42 663.727 42H652.945V24.2695ZM658.113 38.3555H663.328C664.141 38.3555 664.863 38.2539 665.496 38.0508C666.129 37.8477 666.66 37.5547 667.09 37.1719C667.527 36.7812 667.859 36.3047 668.086 35.7422C668.312 35.1797 668.426 34.5352 668.426 33.8086V32.3203C668.426 31.75 668.332 31.1992 668.145 30.668C667.957 30.1367 667.656 29.668 667.242 29.2617C666.836 28.8477 666.309 28.5195 665.66 28.2773C665.02 28.0352 664.238 27.9141 663.316 27.9141H658.113V38.3555Z" fill="white"/>
</svg>
